<?xml version="1.0" encoding="iso-8859-1"?>
<!-- Generator: Adobe Illustrator 17.1.0, SVG Export Plug-In . SVG Version: 6.00 Build 0)  -->
<!DOCTYPE svg PUBLIC "-//W3C//DTD SVG 1.1//EN" "http://www.w3.org/Graphics/SVG/1.1/DTD/svg11.dtd">
<svg version="1.1" id="Capa_1" xmlns="http://www.w3.org/2000/svg" xmlns:xlink="http://www.w3.org/1999/xlink" x="0px" y="0px"
	 viewBox="0 0 217.234 217.234" style="enable-background:new 0 0 217.234 217.234;" xml:space="preserve">
<path d="M215.445,33.696c-1.134-0.949-2.625-1.35-4.087-1.09l-11.655,2.073c-0.639-0.461-1.383-0.789-2.209-0.906
	c-0.943-0.134-23.334-3.283-42.919-3.283c-0.679,0-1.32,0.012-1.975,0.019v-2.175c0-1.524-0.695-2.966-1.889-3.914
	c-1.194-0.949-2.758-1.304-4.239-0.957l-19.335,4.478c-2.267,0.525-3.872,2.544-3.872,4.871v3.655
	c-6.718,3.361-11.559,7.478-14.648,10.644c-4.453-4.564-12.541-11.106-24.651-14.507c-5.062-1.422-12.032-2.113-21.307-2.113
	c-19.585,0-41.975,3.149-42.918,3.283c-0.826,0.117-1.571,0.446-2.209,0.906L5.875,32.606c-1.455-0.26-2.953,0.14-4.086,1.09
	S0,36.049,0,37.529v128.976c0,2.424,1.738,4.498,4.125,4.923l85.893,15.28v2.195c0,2.762,2.239,5,5,5h25.5c2.762,0,5-2.238,5-5
	v-1.893l87.593-15.582c2.386-0.425,4.124-2.499,4.124-4.923V37.529C217.234,36.049,216.579,34.646,215.445,33.696z M123.266,47.966
	v55.519c0,2.275,1.536,4.264,3.737,4.838c0.42,0.109,0.844,0.162,1.264,0.162c1.776,0,3.462-0.95,4.361-2.557l5.732-10.233
	l5.356,6.606c1.333,1.644,3.56,2.27,5.555,1.563c1.995-0.708,3.329-2.596,3.329-4.713V40.508c0.652-0.008,1.296-0.018,1.975-0.018
	c13.915,0,29.766,1.715,37.216,2.628v111.727c-8.119-1.106-23.466-2.891-37.966-2.891c-8.097,0-14.906,0.572-20.238,1.699
	c-9.149,1.933-15.542,4.421-19.97,6.8V56.495C115.008,54.765,118.184,51.266,123.266,47.966z M81.262,42.23
	c12.691,3.564,20.015,11.408,22.355,14.282v103.94c-4.428-2.379-10.82-4.867-19.969-6.8c-5.333-1.127-12.142-1.699-20.239-1.699
	c-14.5,0-29.846,1.784-37.965,2.891V43.117c7.447-0.912,23.288-2.627,37.215-2.627C70.892,40.49,77.151,41.076,81.262,42.23z"/>
<g>
</g>
<g>
</g>
<g>
</g>
<g>
</g>
<g>
</g>
<g>
</g>
<g>
</g>
<g>
</g>
<g>
</g>
<g>
</g>
<g>
</g>
<g>
</g>
<g>
</g>
<g>
</g>
<g>
</g>
</svg>
